<svg width="21" height="13" viewBox="0 0 21 13" fill="none" xmlns="http://www.w3.org/2000/svg">
<path d="M0.802734 6.0559C2.52042 3.23679 4.88154 1.22721 8.16193 0.482531C11.3285 -0.23671 14.2217 0.469063 16.8105 2.40383C18.03 3.31701 19.0694 4.44642 19.8763 5.73518C19.942 5.83943 19.9996 5.94866 20.0608 6.0559V6.35516C18.4129 9.06803 16.1535 11.0337 13.0296 11.8502C10.0205 12.6368 7.19401 12.1101 4.6042 10.3968C3.12323 9.41717 1.92512 8.15676 0.977762 6.65992C0.915073 6.56016 0.861412 6.45692 0.803236 6.35516L0.802734 6.0559ZM10.6244 1.41724C9.42725 1.41724 8.44077 1.57336 7.4889 1.91153C5.24864 2.70958 3.53999 4.17799 2.18591 6.09131C2.11469 6.19107 2.14278 6.25341 2.20045 6.33521C2.9452 7.39662 3.82335 8.33332 4.87502 9.09795C7.42521 10.9524 10.2216 11.5041 13.2503 10.5339C15.5688 9.79026 17.3065 8.2615 18.6902 6.30379C18.7609 6.20403 18.7138 6.14717 18.6641 6.07634C18.0872 5.2436 17.4059 4.4875 16.6365 3.82635C14.8541 2.30008 12.8135 1.43221 10.6244 1.41724Z" fill="#173559"/>
<path d="M10.4408 2.61426C11.155 2.61604 11.8526 2.8284 12.4454 3.22448C13.0382 3.62056 13.4996 4.18258 13.7712 4.83947C14.0429 5.49635 14.1126 6.2186 13.9715 6.91488C13.8304 7.61116 13.4849 8.25019 12.9787 8.75117C12.4724 9.25216 11.8282 9.59259 11.1274 9.72941C10.4266 9.86624 9.70074 9.79332 9.04162 9.51987C8.3825 9.24642 7.81972 8.78473 7.42444 8.19317C7.02915 7.60162 6.81912 6.90677 6.8209 6.1965C6.82488 5.24454 7.20812 4.33296 7.88664 3.6615C8.56516 2.99004 9.48363 2.61346 10.4408 2.61426ZM12.839 6.21246C12.8404 5.73865 12.7004 5.27508 12.4368 4.88044C12.1731 4.48581 11.7976 4.17786 11.3579 3.99558C10.9181 3.81331 10.4339 3.7649 9.96648 3.85649C9.49905 3.94807 9.06946 4.17554 8.7321 4.51009C8.39474 4.84464 8.16477 5.27122 8.07131 5.73582C7.97786 6.20043 8.02512 6.68217 8.20711 7.12005C8.3891 7.55793 8.69764 7.93226 9.09366 8.19564C9.48968 8.45902 9.95538 8.59961 10.4318 8.59962C11.0685 8.59779 11.6786 8.34592 12.1295 7.89883C12.5803 7.45175 12.8353 6.84564 12.839 6.21246Z" fill="#173559"/>
</svg>
