<svg width="20" height="17" viewBox="0 0 20 17" fill="none" xmlns="http://www.w3.org/2000/svg">
<path d="M15.8333 0.207031H4.16667C3.062 0.208186 2.00296 0.591673 1.22185 1.27337C0.440735 1.95507 0.00132321 2.87933 0 3.84339L0 12.5707C0.00132321 13.5347 0.440735 14.459 1.22185 15.1407C2.00296 15.8224 3.062 16.2059 4.16667 16.207H15.8333C16.938 16.2059 17.997 15.8224 18.7782 15.1407C19.5593 14.459 19.9987 13.5347 20 12.5707V3.84339C19.9987 2.87933 19.5593 1.95507 18.7782 1.27337C17.997 0.591673 16.938 0.208186 15.8333 0.207031ZM4.16667 1.66158H15.8333C16.3323 1.66243 16.8196 1.79359 17.2325 2.03816C17.6453 2.28274 17.9649 2.62954 18.15 3.03394L11.7683 8.60412C11.2987 9.01235 10.6628 9.24155 10 9.24155C9.33715 9.24155 8.70131 9.01235 8.23167 8.60412L1.85 3.03394C2.03512 2.62954 2.35468 2.28274 2.76754 2.03816C3.1804 1.79359 3.66768 1.66243 4.16667 1.66158ZM15.8333 14.7525H4.16667C3.50363 14.7525 2.86774 14.5226 2.3989 14.1134C1.93006 13.7043 1.66667 13.1493 1.66667 12.5707V4.9343L7.05333 9.63249C7.83552 10.3134 8.89521 10.6958 10 10.6958C11.1048 10.6958 12.1645 10.3134 12.9467 9.63249L18.3333 4.9343V12.5707C18.3333 13.1493 18.0699 13.7043 17.6011 14.1134C17.1323 14.5226 16.4964 14.7525 15.8333 14.7525Z" fill="#DCDCDC"/>
</svg>
