<svg width="16" height="20" viewBox="0 0 16 20" fill="none" xmlns="http://www.w3.org/2000/svg">
<path d="M3.01873 7.05218C3.01873 6.37116 3.01873 5.72895 3.01873 5.08145C3.01873 3.80232 3.39718 2.65111 4.26434 1.70897C5.6599 0.190786 7.39599 -0.35262 9.38083 0.226955C11.3789 0.810941 12.5689 2.2065 12.8989 4.26369C13.0127 4.97647 12.9536 5.7166 12.9703 6.44349C12.9756 6.63669 12.9703 6.83076 12.9703 7.03366C13.2191 7.05042 13.4537 7.05306 13.6849 7.08394C14.3202 7.1679 14.9036 7.47957 15.3265 7.9611C15.7495 8.44262 15.9833 9.06127 15.9846 9.70217C15.9905 12.1169 15.9905 14.5314 15.9846 16.9455C15.9943 17.2776 15.9683 17.6097 15.907 17.9362C15.7787 18.5216 15.4537 19.0453 14.9861 19.4202C14.5185 19.795 13.9366 19.9982 13.3373 19.996C9.77162 20.0013 6.20625 20.0013 2.64117 19.996C1.94097 19.9935 1.27032 19.7135 0.776107 19.2175C0.281896 18.7214 0.00440606 18.0498 0.00441077 17.3496C-0.00147026 14.8025 -0.00147026 12.256 0.00441077 9.71011C0.00429477 9.36061 0.0730623 9.01452 0.206783 8.69161C0.340504 8.36871 0.536552 8.07532 0.783726 7.82823C1.0309 7.58114 1.32435 7.38519 1.6473 7.25157C1.97025 7.11796 2.31637 7.0493 2.66587 7.04953L3.01873 7.05218ZM7.99408 18.6631H13.2164C14.0986 18.6631 14.6535 18.1091 14.6535 17.219C14.6535 14.756 14.6535 12.2931 14.6535 9.83008C14.6535 8.93205 14.1012 8.38423 13.197 8.38423H2.78761C1.87458 8.38423 1.33029 8.93205 1.33029 9.85037V17.197C1.33029 18.117 1.87369 18.6631 2.78672 18.6631H7.99408ZM11.6109 7.04247C11.6197 7.0266 11.6259 7.0213 11.6259 7.01513C11.6118 6.13297 11.678 5.23318 11.5642 4.35985C11.3454 2.68375 9.8369 1.40022 8.15992 1.34729C6.39561 1.29171 4.84568 2.44204 4.46282 4.12166C4.24669 5.07174 4.38078 6.04212 4.36137 7.00278C4.36137 7.01425 4.37549 7.02571 4.38607 7.04247H11.6109Z" fill="#F6BB3B"/>
<path d="M7.0934 14.367C7.0934 14.2629 7.0934 14.1588 7.0934 14.0556C7.10398 13.7575 7.07046 13.4946 6.88609 13.222C6.52617 12.6927 6.69289 11.9579 7.19837 11.5644C7.44596 11.3696 7.75616 11.2719 8.07071 11.2896C8.38526 11.3073 8.68253 11.4392 8.9067 11.6606C9.13088 11.8819 9.26654 12.1775 9.28822 12.4918C9.30989 12.8061 9.2161 13.1175 9.02443 13.3676C8.93787 13.4741 8.89387 13.6089 8.90093 13.746C8.90622 14.1686 8.90093 14.592 8.90093 15.0145C8.90093 15.4988 8.63628 15.7547 8.15198 15.76C8.02672 15.76 7.90233 15.76 7.77707 15.76C7.37216 15.7476 7.10663 15.4847 7.0934 15.0754C7.08369 14.839 7.0934 14.6035 7.0934 14.367Z" fill="#F6BB3B"/>
</svg>
