<svg width="20" height="16" viewBox="0 0 20 16" fill="none" xmlns="http://www.w3.org/2000/svg">
<path d="M15.8333 0H4.16667C3.062 0.00115481 2.00296 0.384641 1.22185 1.06634C0.440735 1.74804 0.00132321 2.67229 0 3.63636L0 12.3636C0.00132321 13.3277 0.440735 14.252 1.22185 14.9337C2.00296 15.6154 3.062 15.9988 4.16667 16H15.8333C16.938 15.9988 17.997 15.6154 18.7782 14.9337C19.5593 14.252 19.9987 13.3277 20 12.3636V3.63636C19.9987 2.67229 19.5593 1.74804 18.7782 1.06634C17.997 0.384641 16.938 0.00115481 15.8333 0ZM4.16667 1.45455H15.8333C16.3323 1.4554 16.8196 1.58656 17.2325 1.83113C17.6453 2.0757 17.9649 2.42251 18.15 2.82691L11.7683 8.39709C11.2987 8.80532 10.6628 9.03452 10 9.03452C9.33715 9.03452 8.70131 8.80532 8.23167 8.39709L1.85 2.82691C2.03512 2.42251 2.35468 2.0757 2.76754 1.83113C3.1804 1.58656 3.66768 1.4554 4.16667 1.45455ZM15.8333 14.5455H4.16667C3.50363 14.5455 2.86774 14.3156 2.3989 13.9064C1.93006 13.4972 1.66667 12.9423 1.66667 12.3636V4.72727L7.05333 9.42546C7.83552 10.1064 8.89521 10.4888 10 10.4888C11.1048 10.4888 12.1645 10.1064 12.9467 9.42546L18.3333 4.72727V12.3636C18.3333 12.9423 18.0699 13.4972 17.6011 13.9064C17.1323 14.3156 16.4964 14.5455 15.8333 14.5455Z" fill="#F6BB3B"/>
</svg>
