<svg width="205" height="66" viewBox="0 0 205 66" fill="none" xmlns="http://www.w3.org/2000/svg">
<path d="M53.8368 29.8712C53.8368 23.8033 56.1218 18.4766 60.6553 14.0037V12.0664H55.1712V0H45.9854V12.0664H41.5113V20.0282H45.9854V48.3088H55.1667L56.6062 40.8843C54.7736 37.4741 53.8242 33.6987 53.8368 29.8712Z" fill="#F6BB3B"/>
<path d="M78.9211 10.8612C84.917 10.8612 89.9441 12.9965 94.0024 17.2671C97.4058 20.7727 99.2523 25.3882 99.1574 30.1526C99.1574 36.1222 96.8312 40.9939 92.1789 44.7675C88.4582 47.8725 83.6574 49.5615 78.7017 49.5091C75.4406 49.502 72.2328 48.7229 69.3696 47.2423C66.1835 45.6796 63.4999 43.3321 61.6005 40.4463C59.5078 37.2776 58.4196 33.6052 58.4654 29.8666C58.4654 24.4142 60.7291 19.7419 65.2566 15.8498C69.0162 12.6194 73.571 10.9566 78.9211 10.8612ZM78.8845 18.8274C75.6032 18.8274 72.7804 20.1363 70.4162 22.7542C68.5843 24.7797 67.6076 27.3765 67.6741 30.0443C67.6741 33.867 69.0558 36.8749 71.8192 39.068C73.7731 40.681 76.2804 41.5625 78.8708 41.5472C80.4671 41.5849 82.0506 41.2688 83.4953 40.624C84.9401 39.9791 86.2062 39.0234 87.1929 37.8328C89.0453 35.7183 90.0375 33.0443 89.9898 30.2957C90.0358 28.624 89.6908 26.9634 88.9796 25.4331C88.2684 23.9029 87.2088 22.541 85.8768 21.4453C83.9674 19.7829 81.4764 18.8503 78.8845 18.8274Z" fill="#F6BB3B"/>
<path d="M132.043 48.3086V39.6012H141.22V48.3086H132.043Z" fill="#173559"/>
<path d="M185.728 12.0665V48.3089H177.329V43.849C176.413 44.7626 175.387 45.57 174.271 46.2545C170.984 48.4216 167.55 49.5066 163.97 49.5095C160.346 49.5323 156.801 48.4957 153.82 46.5406C150.676 44.5124 148.279 41.6028 146.965 38.2189C145.906 35.5996 145.372 32.8154 145.393 30.01C145.393 24.7223 147.171 20.2509 150.726 16.5957C152.448 14.7529 154.57 13.286 156.948 12.296C159.325 11.3061 161.9 10.8167 164.496 10.8616C168.068 10.8841 171.536 12.0033 174.381 14.0515C175.483 14.7881 176.474 15.6629 177.329 16.6521V12.0665H185.728ZM165.871 18.8278C164.284 18.7822 162.707 19.0801 161.26 19.6989C159.812 20.3177 158.532 21.2412 157.517 22.3992C156.57 23.4992 155.843 24.7534 155.369 26.1006C154.85 27.4676 154.58 28.9082 154.57 30.3611C154.52 33.059 155.493 35.6842 157.312 37.7595C158.337 38.9872 159.65 39.9717 161.146 40.6352C162.642 41.2986 164.28 41.6229 165.931 41.5823C167.473 41.6256 169.006 41.3432 170.42 40.7555C171.833 40.1679 173.091 39.2896 174.102 38.1843C176.092 36.0403 177.086 33.3748 177.086 30.1877C177.086 26.8851 176.092 24.2181 174.102 22.1868C173.052 21.1146 171.778 20.262 170.36 19.6836C168.943 19.1052 167.414 18.8137 165.871 18.8278Z" fill="#173559"/>
<path d="M194.117 7.96189V0H203.294V7.96189H194.117ZM194.117 48.3088V12.0664H203.294V48.3088H194.117Z" fill="#173559"/>
<path d="M12.7734 39.2766C15.9267 42.0028 19.6011 43.2943 23.8558 42.8739C27.2114 42.5863 30.3158 41.0668 32.507 38.6394C36.876 33.9022 37.0177 26.8418 32.8406 22.1262C31.6581 20.7245 30.1687 19.583 28.4754 18.7808C26.782 17.9786 24.9252 17.5347 23.0332 17.48C21.164 17.3871 19.2947 17.6622 17.5431 18.288C15.7916 18.9139 14.1956 19.8768 12.8556 21.1164C14.3226 18.4682 19.7519 14.8795 26.4333 15.4169C33.3387 15.976 39.4215 21.3937 40.3995 27.986C40.9296 31.3709 40.2114 34.8256 38.3662 37.7664C36.521 40.7072 33.662 42.9537 30.2722 44.1265C23.4445 46.5016 16.1781 43.9141 12.7734 39.2766Z" fill="#173559"/>
<path d="M26.5645 45.9421C23.5154 46.1813 20.4551 45.6298 17.711 44.3465C14.967 43.0632 12.6425 41.0965 10.9863 38.6568C9.33018 36.217 8.40466 33.3961 8.30884 30.496C8.21302 27.5958 8.95049 24.7255 10.4424 22.1922C11.9342 19.6589 14.1243 17.558 16.7782 16.1143C19.4322 14.6706 22.4501 13.9384 25.509 13.9962C28.568 14.0539 31.5528 14.8994 34.1441 16.4421C36.7353 17.9848 38.8355 20.1667 40.2199 22.7542C38.3846 18.549 35.0446 15.0922 30.7873 12.9917C26.5301 10.8913 21.6282 10.2818 16.9438 11.2703C12.2595 12.2589 8.09271 14.7823 5.17634 18.3967C2.25998 22.0111 0.780817 26.4849 0.999011 31.0314C1.21721 35.5779 3.11878 39.9059 6.36929 43.2541C9.6198 46.6022 14.0111 48.7562 18.7707 49.3372C23.5304 49.9181 28.3536 48.8888 32.3921 46.4302C36.4306 43.9717 39.4257 40.2414 40.8506 35.8955C39.6769 38.656 37.7216 41.0553 35.2005 42.8282C32.6794 44.6011 29.6908 45.6787 26.5645 45.9421Z" fill="#F6BB3B"/>
<path d="M110.228 40.3427L127.055 19.9374V12.0665H94.9915C95.8564 12.7628 96.6745 13.5097 97.441 14.303C99.0772 16.0044 100.436 17.9284 101.472 20.0111H116.014L103.204 35.5404C102.096 40.4649 99.2724 44.8924 95.188 48.1096C95.1011 48.1789 95.0098 48.2353 94.9275 48.3046H128.253V40.3427H110.228Z" fill="#F6BB3B"/>
<path d="M129.043 60.2129H126.903V58.863H129.043C129.373 58.863 129.643 58.8092 129.85 58.7015C130.058 58.59 130.21 58.4362 130.306 58.24C130.402 58.0439 130.45 57.8228 130.45 57.5766C130.45 57.3267 130.402 57.094 130.306 56.8786C130.21 56.6633 130.058 56.4902 129.85 56.3595C129.643 56.2287 129.373 56.1633 129.043 56.1633H127.503V63.2068H125.772V54.8077H129.043C129.7 54.8077 130.264 54.9269 130.733 55.1654C131.206 55.3999 131.567 55.7249 131.817 56.1402C132.067 56.5556 132.192 57.0305 132.192 57.5651C132.192 58.1073 132.067 58.5765 131.817 58.9726C131.567 59.3687 131.206 59.6745 130.733 59.8898C130.264 60.1052 129.7 60.2129 129.043 60.2129ZM133.105 60.1494V60.0283C133.105 59.5706 133.171 59.1495 133.301 58.765C133.432 58.3765 133.623 58.04 133.873 57.7555C134.122 57.4709 134.43 57.2497 134.795 57.0921C135.161 56.9305 135.58 56.8498 136.053 56.8498C136.526 56.8498 136.947 56.9305 137.316 57.0921C137.686 57.2497 137.995 57.4709 138.245 57.7555C138.499 58.04 138.691 58.3765 138.822 58.765C138.953 59.1495 139.018 59.5706 139.018 60.0283V60.1494C139.018 60.6032 138.953 61.0243 138.822 61.4128C138.691 61.7973 138.499 62.1338 138.245 62.4223C137.995 62.7068 137.687 62.928 137.322 63.0856C136.957 63.2433 136.538 63.3222 136.065 63.3222C135.592 63.3222 135.17 63.2433 134.801 63.0856C134.436 62.928 134.126 62.7068 133.873 62.4223C133.623 62.1338 133.432 61.7973 133.301 61.4128C133.171 61.0243 133.105 60.6032 133.105 60.1494ZM134.767 60.0283V60.1494C134.767 60.4109 134.79 60.6551 134.836 60.882C134.882 61.1089 134.955 61.3089 135.055 61.482C135.159 61.6512 135.294 61.7839 135.459 61.88C135.624 61.9762 135.826 62.0242 136.065 62.0242C136.295 62.0242 136.493 61.9762 136.659 61.88C136.824 61.7839 136.957 61.6512 137.057 61.482C137.157 61.3089 137.23 61.1089 137.276 60.882C137.326 60.6551 137.351 60.4109 137.351 60.1494V60.0283C137.351 59.7745 137.326 59.536 137.276 59.313C137.23 59.0861 137.155 58.8861 137.051 58.713C136.951 58.5361 136.818 58.3977 136.653 58.2977C136.488 58.1977 136.288 58.1477 136.053 58.1477C135.818 58.1477 135.618 58.1977 135.453 58.2977C135.292 58.3977 135.159 58.5361 135.055 58.713C134.955 58.8861 134.882 59.0861 134.836 59.313C134.79 59.536 134.767 59.7745 134.767 60.0283ZM141.99 61.5916L143.288 56.9652H144.344L144.004 58.7823L142.706 63.2068H141.823L141.99 61.5916ZM141.333 56.9652L142.262 61.5858L142.348 63.2068H141.31L139.729 56.9652H141.333ZM145.532 61.5108L146.438 56.9652H148.047L146.467 63.2068H145.434L145.532 61.5108ZM144.488 56.9652L145.78 61.557L145.959 63.2068H145.071L143.773 58.788L143.444 56.9652H144.488ZM151.925 63.3222C151.441 63.3222 151.006 63.2452 150.622 63.0914C150.237 62.9337 149.91 62.7165 149.641 62.4396C149.376 62.1627 149.172 61.8416 149.03 61.4762C148.887 61.107 148.816 60.7148 148.816 60.2994V60.0687C148.816 59.5956 148.883 59.163 149.018 58.7707C149.153 58.3785 149.345 58.0381 149.595 57.7497C149.849 57.4613 150.156 57.2401 150.518 57.0863C150.879 56.9286 151.287 56.8498 151.741 56.8498C152.183 56.8498 152.575 56.9229 152.918 57.069C153.26 57.2151 153.546 57.4228 153.777 57.692C154.012 57.9612 154.189 58.2842 154.308 58.6611C154.427 59.0342 154.487 59.4495 154.487 59.9071V60.5994H149.526V59.4918H152.854V59.3649C152.854 59.1342 152.812 58.9284 152.727 58.7477C152.647 58.5631 152.523 58.4169 152.358 58.3092C152.193 58.2016 151.981 58.1477 151.724 58.1477C151.504 58.1477 151.316 58.1958 151.158 58.2919C151.001 58.3881 150.872 58.5227 150.772 58.6957C150.676 58.8688 150.603 59.0726 150.553 59.3072C150.506 59.538 150.483 59.7918 150.483 60.0687V60.2994C150.483 60.5494 150.518 60.7801 150.587 60.9916C150.66 61.2032 150.762 61.3858 150.893 61.5397C151.027 61.6935 151.189 61.8127 151.377 61.8973C151.57 61.9819 151.787 62.0242 152.029 62.0242C152.329 62.0242 152.608 61.9665 152.866 61.8512C153.127 61.7319 153.352 61.5531 153.541 61.3147L154.348 62.1915C154.218 62.38 154.039 62.5607 153.812 62.7338C153.589 62.9068 153.32 63.0491 153.004 63.1606C152.689 63.2683 152.329 63.3222 151.925 63.3222ZM157.263 58.3265V63.2068H155.602V56.9652H157.165L157.263 58.3265ZM159.143 56.9248L159.115 58.465C159.034 58.4535 158.936 58.4438 158.82 58.4362C158.709 58.4246 158.607 58.4188 158.515 58.4188C158.28 58.4188 158.076 58.4496 157.903 58.5111C157.734 58.5688 157.592 58.6554 157.476 58.7707C157.365 58.8861 157.28 59.0265 157.223 59.1918C157.169 59.3572 157.138 59.5456 157.13 59.7572L156.796 59.6533C156.796 59.2495 156.836 58.8784 156.917 58.54C156.998 58.1977 157.115 57.8997 157.269 57.6459C157.426 57.392 157.619 57.1959 157.846 57.0575C158.072 56.919 158.332 56.8498 158.624 56.8498C158.717 56.8498 158.811 56.8575 158.907 56.8729C159.003 56.8844 159.082 56.9017 159.143 56.9248ZM162.854 63.3222C162.37 63.3222 161.935 63.2452 161.55 63.0914C161.166 62.9337 160.839 62.7165 160.57 62.4396C160.304 62.1627 160.101 61.8416 159.958 61.4762C159.816 61.107 159.745 60.7148 159.745 60.2994V60.0687C159.745 59.5956 159.812 59.163 159.947 58.7707C160.081 58.3785 160.274 58.0381 160.524 57.7497C160.777 57.4613 161.085 57.2401 161.447 57.0863C161.808 56.9286 162.216 56.8498 162.67 56.8498C163.112 56.8498 163.504 56.9229 163.846 57.069C164.189 57.2151 164.475 57.4228 164.706 57.692C164.94 57.9612 165.117 58.2842 165.237 58.6611C165.356 59.0342 165.415 59.4495 165.415 59.9071V60.5994H160.454V59.4918H163.783V59.3649C163.783 59.1342 163.741 58.9284 163.656 58.7477C163.575 58.5631 163.452 58.4169 163.287 58.3092C163.121 58.2016 162.91 58.1477 162.652 58.1477C162.433 58.1477 162.245 58.1958 162.087 58.2919C161.929 58.3881 161.8 58.5227 161.7 58.6957C161.604 58.8688 161.531 59.0726 161.481 59.3072C161.435 59.538 161.412 59.7918 161.412 60.0687V60.2994C161.412 60.5494 161.447 60.7801 161.516 60.9916C161.589 61.2032 161.691 61.3858 161.822 61.5397C161.956 61.6935 162.118 61.8127 162.306 61.8973C162.498 61.9819 162.716 62.0242 162.958 62.0242C163.258 62.0242 163.537 61.9665 163.794 61.8512C164.056 61.7319 164.281 61.5531 164.469 61.3147L165.277 62.1915C165.146 62.38 164.967 62.5607 164.74 62.7338C164.517 62.9068 164.248 63.0491 163.933 63.1606C163.618 63.2683 163.258 63.3222 162.854 63.3222ZM170.216 61.8454V54.3462H171.889V63.2068H170.384L170.216 61.8454ZM166.271 60.161V60.0398C166.271 59.563 166.324 59.1303 166.432 58.7419C166.54 58.3496 166.698 58.0131 166.905 57.7324C167.113 57.4516 167.369 57.2344 167.672 57.0805C167.976 56.9267 168.322 56.8498 168.711 56.8498C169.076 56.8498 169.395 56.9267 169.668 57.0805C169.945 57.2344 170.18 57.4536 170.372 57.7382C170.568 58.0189 170.726 58.3515 170.845 58.7361C170.964 59.1168 171.051 59.5341 171.105 59.9879V60.2533C171.051 60.6878 170.964 61.0916 170.845 61.4647C170.726 61.8377 170.568 62.1646 170.372 62.4453C170.18 62.7222 169.945 62.9376 169.668 63.0914C169.391 63.2452 169.068 63.3222 168.699 63.3222C168.311 63.3222 167.965 63.2433 167.661 63.0856C167.361 62.928 167.107 62.7068 166.899 62.4223C166.696 62.1377 166.54 61.8031 166.432 61.4185C166.324 61.0339 166.271 60.6148 166.271 60.161ZM167.932 60.0398V60.161C167.932 60.4186 167.951 60.659 167.99 60.882C168.032 61.1051 168.099 61.3031 168.192 61.4762C168.288 61.6454 168.411 61.7781 168.561 61.8742C168.715 61.9665 168.901 62.0127 169.12 62.0127C169.405 62.0127 169.64 61.9492 169.824 61.8223C170.009 61.6916 170.149 61.5127 170.245 61.2858C170.345 61.0589 170.403 60.7974 170.418 60.5013V59.7456C170.407 59.5033 170.372 59.2861 170.314 59.0938C170.261 58.8976 170.18 58.7304 170.072 58.5919C169.968 58.4535 169.838 58.3458 169.68 58.2689C169.526 58.1919 169.343 58.1535 169.132 58.1535C168.917 58.1535 168.732 58.2035 168.578 58.3035C168.424 58.3996 168.299 58.5323 168.203 58.7015C168.111 58.8707 168.042 59.0707 167.995 59.3014C167.953 59.5283 167.932 59.7745 167.932 60.0398ZM176.467 54.3462H178.128V61.7762L177.961 63.2068H176.467V54.3462ZM182.08 60.0225V60.1437C182.08 60.609 182.03 61.0359 181.93 61.4243C181.833 61.8127 181.683 62.1492 181.48 62.4338C181.276 62.7145 181.022 62.9337 180.718 63.0914C180.418 63.2452 180.064 63.3222 179.657 63.3222C179.276 63.3222 178.945 63.2452 178.665 63.0914C178.388 62.9376 178.155 62.7203 177.967 62.4396C177.778 62.1588 177.626 61.83 177.511 61.4531C177.395 61.0762 177.309 60.6648 177.251 60.2187V59.9533C177.309 59.5072 177.395 59.0957 177.511 58.7188C177.626 58.3419 177.778 58.0131 177.967 57.7324C178.155 57.4516 178.388 57.2344 178.665 57.0805C178.941 56.9267 179.268 56.8498 179.645 56.8498C180.057 56.8498 180.414 56.9286 180.718 57.0863C181.026 57.2401 181.28 57.4593 181.48 57.7439C181.683 58.0247 181.833 58.3592 181.93 58.7477C182.03 59.1322 182.08 59.5572 182.08 60.0225ZM180.418 60.1437V60.0225C180.418 59.7687 180.399 59.5303 180.361 59.3072C180.326 59.0803 180.264 58.8823 180.176 58.713C180.087 58.54 179.966 58.4035 179.813 58.3035C179.663 58.2035 179.468 58.1535 179.23 58.1535C179.003 58.1535 178.811 58.1919 178.653 58.2689C178.495 58.3458 178.365 58.4535 178.261 58.5919C178.161 58.7304 178.086 58.8957 178.036 59.088C177.986 59.2764 177.955 59.4841 177.943 59.711V60.4667C177.955 60.7705 178.005 61.0397 178.093 61.2743C178.186 61.505 178.324 61.6877 178.509 61.8223C178.697 61.9531 178.941 62.0185 179.241 62.0185C179.476 62.0185 179.67 61.9723 179.824 61.88C179.978 61.7877 180.097 61.657 180.182 61.4877C180.27 61.3185 180.332 61.1205 180.366 60.8936C180.401 60.6628 180.418 60.4129 180.418 60.1437ZM185.063 62.503L186.719 56.9652H188.502L185.992 64.1471C185.938 64.3047 185.865 64.474 185.773 64.6547C185.685 64.8355 185.563 65.0066 185.41 65.1681C185.26 65.3335 185.069 65.4681 184.838 65.5719C184.612 65.6757 184.333 65.7277 184.002 65.7277C183.844 65.7277 183.716 65.7181 183.616 65.6988C183.516 65.6796 183.396 65.6527 183.258 65.6181V64.4009C183.3 64.4009 183.344 64.4009 183.391 64.4009C183.437 64.4047 183.481 64.4067 183.523 64.4067C183.742 64.4067 183.921 64.3817 184.06 64.3317C184.198 64.2817 184.31 64.2048 184.394 64.1009C184.479 64.0009 184.546 63.8702 184.596 63.7087L185.063 62.503ZM184.371 56.9652L185.727 61.4877L185.963 63.2472L184.833 63.3683L182.589 56.9652H184.371ZM195.963 56.2441L193.679 63.2068H191.839L194.96 54.8077H196.131L195.963 56.2441ZM197.861 63.2068L195.571 56.2441L195.386 54.8077H196.569L199.707 63.2068H197.861ZM197.757 60.0802V61.4358H193.321V60.0802H197.757ZM202.495 54.8077V63.2068H200.77V54.8077H202.495Z" fill="#173559"/>
</svg>
