<svg width="17" height="21" viewBox="0 0 17 21" fill="none" xmlns="http://www.w3.org/2000/svg">
<path d="M3.11746 7.25921C3.11746 6.57819 3.11746 5.93598 3.11746 5.28848C3.11746 4.00935 3.49798 2.85814 4.36989 1.916C5.7731 0.397817 7.51869 -0.145589 9.51442 0.433986C11.5234 1.01797 12.72 2.41354 13.0517 4.47072C13.1661 5.1835 13.1067 5.92363 13.1236 6.65052C13.1289 6.84372 13.1236 7.03779 13.1236 7.24069C13.3737 7.25745 13.6096 7.26009 13.842 7.29097C14.4809 7.37493 15.0674 7.6866 15.4927 8.16813C15.918 8.64965 16.1531 9.2683 16.1544 9.9092C16.1603 12.324 16.1603 14.7384 16.1544 17.1526C16.1641 17.4846 16.138 17.8167 16.0764 18.1432C15.9474 18.7286 15.6206 19.2524 15.1504 19.6272C14.6802 20.002 14.0951 20.2053 13.4926 20.2031C9.90735 20.2084 6.32244 20.2084 2.73783 20.2031C2.03379 20.2005 1.35946 19.9205 0.862544 19.4245C0.365625 18.9285 0.086614 18.2568 0.0866188 17.5566C0.0807055 15.0095 0.0807055 12.463 0.0866188 9.91714C0.0865021 9.56765 0.155646 9.22155 0.2901 8.89865C0.424553 8.57574 0.621676 8.28235 0.870204 8.03526C1.11873 7.78817 1.41379 7.59222 1.73851 7.4586C2.06323 7.32499 2.41125 7.25633 2.76266 7.25656L3.11746 7.25921ZM8.12006 18.8701H13.371C14.258 18.8701 14.8159 18.3161 14.8159 17.426C14.8159 14.9631 14.8159 12.5001 14.8159 10.0371C14.8159 9.13908 14.2607 8.59126 13.3515 8.59126H2.88506C1.96703 8.59126 1.41976 9.13908 1.41976 10.0574V17.404C1.41976 18.3241 1.96614 18.8701 2.88418 18.8701H8.12006ZM11.7567 7.24951C11.7656 7.23363 11.7718 7.22833 11.7718 7.22216C11.7576 6.34 11.8241 5.44021 11.7097 4.56688C11.4897 2.89078 9.97298 1.60725 8.28682 1.55432C6.51284 1.49874 4.95441 2.64907 4.56946 4.32869C4.35215 5.27877 4.48697 6.24915 4.46745 7.20981C4.46745 7.22128 4.48165 7.23274 4.49229 7.24951H11.7567Z" fill="#DCDCDC"/>
<path d="M7.21445 14.5741C7.21445 14.47 7.21445 14.3659 7.21445 14.2627C7.2251 13.9645 7.19139 13.7017 7.00601 13.4291C6.64412 12.8998 6.81176 12.1649 7.32 11.7715C7.56895 11.5767 7.88085 11.479 8.19712 11.4967C8.5134 11.5144 8.81229 11.6463 9.03769 11.8676C9.2631 12.089 9.39951 12.3846 9.4213 12.6989C9.4431 13.0132 9.34879 13.3246 9.15607 13.5746C9.06904 13.6812 9.02479 13.816 9.03189 13.9531C9.03721 14.3756 9.03189 14.7991 9.03189 15.2216C9.03189 15.7059 8.7658 15.9617 8.27884 15.967C8.15289 15.967 8.02782 15.967 7.90187 15.967C7.49474 15.9547 7.22776 15.6918 7.21445 15.2825C7.2047 15.0461 7.21445 14.8105 7.21445 14.5741Z" fill="#DCDCDC"/>
</svg>
