<svg width="20" height="16" viewBox="0 0 20 16" fill="none" xmlns="http://www.w3.org/2000/svg">
<path d="M0 7.65715C1.78854 4.70454 4.25469 2.62538 7.66667 1.82381C9.90625 1.29881 12.101 1.52746 14.2172 2.43736C14.3703 2.5035 14.4542 2.48163 14.5651 2.3686C15.1771 1.74673 15.7964 1.13267 16.4135 0.516002C16.5938 0.335273 16.8068 0.267042 17.0552 0.342042C17.1631 0.371007 17.2606 0.429903 17.3365 0.511927C17.4123 0.59395 17.4634 0.695755 17.4839 0.805585C17.5401 1.05819 17.4396 1.25871 17.2609 1.43631C16.4161 2.27659 15.5734 3.11861 14.7328 3.96236C11.0411 7.65506 7.34983 11.3478 3.65885 15.0405C3.47865 15.2212 3.28594 15.353 3.02188 15.3009C2.90791 15.2849 2.80103 15.2362 2.71421 15.1607C2.62739 15.0852 2.56438 14.986 2.53281 14.8754C2.45417 14.628 2.51719 14.4129 2.69792 14.2316C3.21875 13.7108 3.73958 13.19 4.26042 12.6691C4.3125 12.617 4.37083 12.5775 4.44896 12.5129C2.58958 11.3358 1.08802 9.85298 0 7.96965V7.65715ZM13.4219 3.48058C13.3993 3.4665 13.3758 3.45397 13.3516 3.44308C11.2328 2.63892 9.09271 2.58527 6.95469 3.33006C4.61458 4.14465 2.84011 5.69621 1.43386 7.7009C1.35469 7.8134 1.40365 7.87381 1.4599 7.95506C2.22032 9.05529 3.15641 10.023 4.23073 10.8196C4.59531 11.0884 4.97969 11.3269 5.33594 11.5665L6.93594 9.96913C6.44167 9.24725 6.19635 8.4384 6.25885 7.55038C6.32004 6.71632 6.65752 5.92646 7.21792 5.30569C7.77831 4.68493 8.52965 4.26868 9.35313 4.12277C10.376 3.94361 11.3125 4.17798 12.1563 4.74777L13.4219 3.48058ZM7.85625 9.04256L11.2276 5.67277C10.5271 5.16861 9.19635 5.116 8.26458 6.01756C7.3401 6.91131 7.31667 8.24933 7.85625 9.04256Z" fill="#173559"/>
<path d="M20 7.96965C18.2812 10.8165 15.9125 12.8473 12.6562 13.7254C10.7609 14.2368 8.85884 14.1712 6.97394 13.6212C6.9417 13.608 6.91038 13.5927 6.88019 13.5754C7.21092 13.2467 7.52967 12.9254 7.85571 12.6118C7.87969 12.5971 7.90641 12.5874 7.93425 12.5833C7.96209 12.5792 7.99047 12.5807 8.01769 12.5879C11.1364 13.24 13.8708 12.4207 16.2943 10.4243C17.1554 9.70647 17.9139 8.87368 18.5484 7.94933C18.6187 7.84777 18.6208 7.78006 18.5484 7.67798C17.8182 6.62959 16.9337 5.69755 15.925 4.9134C15.8687 4.86965 15.812 4.82537 15.7568 4.78058C15.7507 4.77498 15.7461 4.76802 15.7432 4.76027L16.6442 3.85767C17.9875 4.90715 19.139 6.14933 19.9969 7.65558L20 7.96965Z" fill="#173559"/>
<path d="M9.01825 11.4405C9.41512 11.0457 9.77137 10.6874 10.1344 10.3358C10.175 10.2962 10.2526 10.2863 10.3146 10.2791C10.8607 10.2098 11.3682 9.96113 11.7576 9.57206C12.147 9.18299 12.396 8.67559 12.4656 8.12958C12.4729 8.06708 12.4823 7.98947 12.5219 7.94884C12.8735 7.58426 13.2323 7.23009 13.5959 6.86499C13.9313 7.80249 13.7438 9.26812 12.8084 10.29C11.7943 11.3978 10.5391 11.7613 9.01825 11.4405Z" fill="#173559"/>
</svg>
