<svg width="16" height="12" viewBox="0 0 16 12" fill="none" xmlns="http://www.w3.org/2000/svg">
<path d="M0 5.87596C1.4308 3.51394 3.40367 1.85065 6.13318 1.20941C7.92481 0.789422 9.68059 0.972334 11.3735 1.70023C11.496 1.75315 11.5631 1.73565 11.6518 1.64523C12.1414 1.14775 12.6368 0.656509 13.1305 0.163188C13.2747 0.0186083 13.4451 -0.0359748 13.6438 0.0240238C13.7301 0.0471952 13.8081 0.094311 13.8688 0.159928C13.9295 0.225545 13.9704 0.306987 13.9867 0.394849C14.0317 0.596927 13.9513 0.757339 13.8084 0.899419C13.1326 1.57162 12.4584 2.24522 11.786 2.9202C8.8327 5.8743 5.87972 8.82839 2.92701 11.7825C2.78285 11.9271 2.62869 12.0325 2.41744 11.9908C2.32627 11.978 2.24077 11.9391 2.17132 11.8787C2.10186 11.8182 2.05145 11.7389 2.0262 11.6504C1.96329 11.4525 2.0137 11.2804 2.15828 11.1354C2.57494 10.7188 2.99159 10.3021 3.40825 9.88545C3.44991 9.84378 3.49658 9.81212 3.55908 9.76045C2.07161 8.81881 0.870395 7.63259 0 6.12596V5.87596ZM10.7372 2.5348C10.7192 2.52353 10.7004 2.51351 10.681 2.5048C8.98603 1.86148 7.27399 1.81856 5.56361 2.41438C3.69158 3.06603 2.27203 4.30725 1.14706 5.91096C1.08372 6.00096 1.12289 6.04929 1.16789 6.11429C1.77621 6.99445 2.52506 7.76864 3.3845 8.4059C3.67616 8.6209 3.98365 8.81172 4.26865 9.00339L5.54861 7.7255C5.15321 7.14802 4.95696 6.50095 5.00696 5.79055C5.05591 5.12332 5.32588 4.49145 5.77419 3.99485C6.2225 3.49824 6.82355 3.16526 7.48232 3.04853C8.30063 2.9052 9.04978 3.0927 9.72476 3.54852L10.7372 2.5348ZM6.28485 6.98427L8.98186 4.2885C8.42146 3.88518 7.3569 3.8431 6.6115 4.56433C5.87194 5.27931 5.85319 6.3497 6.28485 6.98427Z" fill="#173559"/>
<path d="M15.9996 6.12596C14.6246 8.4034 12.7297 10.0279 10.1248 10.7304C8.60854 11.1396 7.08691 11.0871 5.57903 10.6471C5.55324 10.6366 5.52819 10.6243 5.50403 10.6104C5.76861 10.3475 6.0236 10.0904 6.28443 9.83962C6.30362 9.82784 6.32499 9.82007 6.34726 9.81677C6.36953 9.81348 6.39224 9.81473 6.41401 9.82045C8.90895 10.3421 11.0964 9.68671 13.0351 8.08966C13.724 7.51538 14.3308 6.84917 14.8384 6.10971C14.8946 6.02846 14.8963 5.9743 14.8384 5.89263C14.2542 5.05394 13.5466 4.30832 12.7397 3.68102C12.6947 3.64602 12.6493 3.6106 12.6051 3.57477C12.6003 3.57029 12.5965 3.56472 12.5943 3.55852L13.3151 2.83646C14.3896 3.67602 15.3109 4.66974 15.9971 5.87471L15.9996 6.12596Z" fill="#173559"/>
<path d="M7.21441 8.90255C7.5319 8.58672 7.81689 8.30006 8.1073 8.01882C8.1398 7.98715 8.20188 7.97924 8.25146 7.9734C8.6883 7.91802 9.09436 7.71907 9.40584 7.40782C9.71731 7.09657 9.91656 6.69066 9.97226 6.25386C9.97809 6.20386 9.98559 6.14178 10.0173 6.10928C10.2985 5.81762 10.5856 5.53429 10.8764 5.24222C11.1447 5.9922 10.9947 7.16467 10.2464 7.98215C9.43519 8.86838 8.43105 9.15921 7.21441 8.90255Z" fill="#173559"/>
</svg>
